<svg width="20" height="20" viewBox="0 0 20 20" fill="none" xmlns="http://www.w3.org/2000/svg">
<g clip-path="url(#clip0_2_1315)">
<path d="M10 17.5C14.1421 17.5 17.5 14.1421 17.5 10C17.5 5.85786 14.1421 2.5 10 2.5C5.85786 2.5 2.5 5.85786 2.5 10C2.5 14.1421 5.85786 17.5 10 17.5Z" stroke="#6A7187" stroke-width="2" stroke-linecap="round" stroke-linejoin="round"/>
<path d="M10.0001 10.8334C10.4603 10.8334 10.8334 10.4603 10.8334 10.0001C10.8334 9.53984 10.4603 9.16675 10.0001 9.16675C9.53984 9.16675 9.16675 9.53984 9.16675 10.0001C9.16675 10.4603 9.53984 10.8334 10.0001 10.8334Z" stroke="#6A7187" stroke-width="2" stroke-linecap="round" stroke-linejoin="round"/>
<path d="M11.175 8.82508L13.3334 6.66675" stroke="#6A7187" stroke-width="2" stroke-linecap="round" stroke-linejoin="round"/>
<path d="M5.83325 9.99992C5.83325 8.89485 6.27224 7.83504 7.05364 7.05364C7.83504 6.27224 8.89485 5.83325 9.99992 5.83325" stroke="#6A7187" stroke-width="2" stroke-linecap="round" stroke-linejoin="round"/>
</g>
<defs>
<clipPath id="clip0_2_1315">
<rect width="20" height="20" fill="white"/>
</clipPath>
</defs>
</svg>
