<svg width="132" height="33" viewBox="0 0 132 33" fill="none" xmlns="http://www.w3.org/2000/svg">
<path d="M39.8154 23.0065H49.0958V20.182H43.1139V9.54297H39.8154V23.0065Z" fill="#0B132A"/>
<path d="M54.594 21.1237C53.2709 21.1237 52.5814 19.9562 52.5814 18.205C52.5814 16.4538 53.2709 15.2675 54.594 15.2675C55.9171 15.2675 56.6253 16.4538 56.6253 18.205C56.6253 19.9562 55.9171 21.1237 54.594 21.1237ZM54.6127 23.308C57.6875 23.308 59.7001 21.1048 59.7001 18.205C59.7001 15.3052 57.6875 13.1021 54.6127 13.1021C51.5565 13.1021 49.5066 15.3052 49.5066 18.205C49.5066 21.1048 51.5565 23.308 54.6127 23.308Z" fill="#0B132A"/>
<path d="M65.0223 26.3396C66.4385 26.3396 67.6871 26.0195 68.5257 25.2663C69.2897 24.5696 69.7929 23.5151 69.7929 22.0652V13.3657H66.8858V14.4014H66.8485C66.2895 13.5917 65.4322 13.0833 64.165 13.0833C61.7984 13.0833 60.1584 15.0792 60.1584 17.9038C60.1584 20.8601 62.1524 22.4795 64.2955 22.4795C65.4509 22.4795 66.1776 22.0087 66.7367 21.3685H66.8112V22.3288C66.8112 23.4963 66.2708 24.1742 64.985 24.1742C63.9787 24.1742 63.4755 23.7411 63.3078 23.2327H60.3634C60.6616 25.2475 62.3947 26.3396 65.0223 26.3396ZM65.0036 20.201C63.8669 20.201 63.1215 19.2595 63.1215 17.8096C63.1215 16.3409 63.8669 15.3994 65.0036 15.3994C66.2708 15.3994 66.9417 16.4915 66.9417 17.7908C66.9417 19.1465 66.3267 20.201 65.0036 20.201Z" fill="#0B132A"/>
<path d="M75.7705 21.1237C74.4474 21.1237 73.7579 19.9562 73.7579 18.205C73.7579 16.4538 74.4474 15.2675 75.7705 15.2675C77.0936 15.2675 77.8015 16.4538 77.8015 18.205C77.8015 19.9562 77.0936 21.1237 75.7705 21.1237ZM75.7892 23.308C78.8637 23.308 80.8763 21.1048 80.8763 18.205C80.8763 15.3052 78.8637 13.1021 75.7892 13.1021C72.733 13.1021 70.6831 15.3052 70.6831 18.205C70.6831 21.1048 72.733 23.308 75.7892 23.308Z" fill="#0B132A"/>
<path d="M81.7639 23.0065H84.8015V13.3655H81.7639V23.0065ZM81.7639 12.0285H84.8015V9.54297H81.7639V12.0285Z" fill="#0B132A"/>
<path d="M86.1189 26.189H89.1564V22.0087H89.1937C89.79 22.8184 90.6659 23.308 91.8958 23.308C94.393 23.308 96.0515 21.312 96.0515 18.1862C96.0515 15.2864 94.5048 13.0833 91.9704 13.0833C90.6659 13.0833 89.7341 13.667 89.0819 14.5332H89.026V13.3657H86.1189V26.189ZM91.1132 20.9354C89.8087 20.9354 89.0633 19.8621 89.0633 18.2992C89.0633 16.7363 89.7341 15.55 91.0573 15.55C92.3617 15.55 92.9767 16.6421 92.9767 18.2992C92.9767 19.9374 92.2685 20.9354 91.1132 20.9354Z" fill="#0B132A"/>
<path d="M100.997 23.308C103.494 23.308 105.339 22.2158 105.339 20.1069C105.339 17.6401 103.364 17.207 101.686 16.9246C100.475 16.6986 99.3942 16.6045 99.3942 15.9266C99.3942 15.324 99.9719 15.0416 100.717 15.0416C101.556 15.0416 102.134 15.3052 102.245 16.1714H105.041C104.892 14.2695 103.438 13.0833 100.736 13.0833C98.4811 13.0833 96.6176 14.1377 96.6176 16.1714C96.6176 18.431 98.3879 18.8829 100.046 19.1654C101.314 19.3913 102.469 19.4855 102.469 20.3517C102.469 20.9731 101.891 21.312 100.978 21.312C99.9719 21.312 99.3383 20.8412 99.2265 19.8809H96.3567C96.4499 22.0087 98.2016 23.308 100.997 23.308Z" fill="#0B132A"/>
<path d="M109.465 23.2889C110.788 23.2889 111.627 22.7617 112.316 21.8202H112.372V23.0065H115.279V13.3655H112.242V18.7509C112.242 19.8995 111.608 20.6904 110.565 20.6904C109.596 20.6904 109.13 20.1066 109.13 19.0522V13.3655H106.111V19.6924C106.111 21.839 107.266 23.2889 109.465 23.2889Z" fill="#0B132A"/>
<path d="M116.601 23.0067H119.638V17.6025C119.638 16.4538 120.197 15.6441 121.148 15.6441C122.061 15.6441 122.49 16.2467 122.49 17.2824V23.0067H125.527V17.6025C125.527 16.4538 126.068 15.6441 127.037 15.6441C127.95 15.6441 128.378 16.2467 128.378 17.2824V23.0067H131.416V16.7363C131.416 14.5708 130.335 13.0833 128.173 13.0833C126.943 13.0833 125.918 13.6105 125.173 14.778H125.136C124.651 13.7423 123.701 13.0833 122.452 13.0833C121.073 13.0833 120.16 13.7423 119.564 14.7403H119.508V13.3657H116.601V23.0067Z" fill="#0B132A"/>
<path fill-rule="evenodd" clip-rule="evenodd" d="M15.6082 31.6371C24.185 31.6371 31.1376 24.6117 31.1376 15.9454C31.1376 7.27909 24.185 0.253662 15.6082 0.253662C7.0316 0.253662 0.0788574 7.27909 0.0788574 15.9454C0.0788574 24.6117 7.0316 31.6371 15.6082 31.6371ZM18.0052 12.3775C19.3289 11.0399 19.3289 8.87122 18.0052 7.53358C16.6814 6.19595 14.5352 6.19595 13.2114 7.53358C11.8876 8.87122 11.8876 11.0399 13.2114 12.3775L15.6082 14.7995L18.0052 12.3775ZM19.1392 18.3674C20.463 19.705 22.6093 19.705 23.9331 18.3674C25.2568 17.0297 25.2568 14.8611 23.9331 13.5234C22.6093 12.1859 20.463 12.1859 19.1392 13.5234L16.7424 15.9454L19.1392 18.3674ZM18.0052 24.3572C19.3289 23.0196 19.3289 20.8509 18.0052 19.5133L15.6082 17.0913L13.2114 19.5133C11.8876 20.8509 11.8876 23.0196 13.2114 24.3572C14.5352 25.6949 16.6814 25.6949 18.0052 24.3572ZM7.28344 18.3674C5.95968 17.0297 5.95968 14.8611 7.28344 13.5234C8.60727 12.1859 10.7535 12.1859 12.0773 13.5234L14.4742 15.9454L12.0773 18.3674C10.7535 19.705 8.60727 19.705 7.28344 18.3674Z" fill="#2161D5"/>
</svg>
